<?xml version="1.0" encoding="UTF-8"?>
<svg width="256" height="256" version="1.1"
     xmlns="http://www.w3.org/2000/svg"
     xmlns:xlink="http://www.w3.org/1999/xlink">
  <defs>
    <linearGradient id="Gradient" x1="0" x2="0" y1="0" y2="1">
      <stop offset="0%" style="stop-color:#F0E2D1;stop-opacity:1" />
      <stop offset="100%" style="stop-color:#F0E2D1;stop-opacity:1" />
    </linearGradient>
    <filter id="alpha-to-white">
      <feColorMatrix in="SourceGraphic" type="matrix"
                     values="0 0 0 0 0 0 0 0 0 0 0 0 0 0 0 0 0 0 0.8 0"/>
    </filter>
    <g id="child-svg"><svg xmlns="http://www.w3.org/2000/svg" xmlns:svg="http://www.w3.org/2000/svg" height="16px" viewBox="0 0 16 16" width="16px" version="1.1" id="svg15572">
  <defs id="defs15576" />
  <path id="path7558-7-2-9" style="color:#000000;fill:#000000;stroke:none;stroke-width:1.36553;stroke-linecap:round;-inkscape-stroke:none" d="m 11.27735,3.5600959 a 0.6827675,0.6827675 0 0 0 -0.482638,0.1998876 0.6827675,0.6827675 0 0 0 0,0.9658568 L 14.068874,8 10.794712,11.274742 a 0.6827675,0.6827675 0 0 0 0,0.965271 0.6827675,0.6827675 0 0 0 0.965273,0 L 16,8 11.759985,3.7599835 A 0.6827675,0.6827675 0 0 0 11.27735,3.5600959 Z m -6.5547,0 A 0.6827675,0.6827675 0 0 0 4.240015,3.7599835 L 0,8 4.240015,12.240013 a 0.6827675,0.6827675 0 0 0 0.965273,0 0.6827675,0.6827675 0 0 0 0,-0.965271 L 1.931126,8 5.205288,4.7258403 a 0.6827675,0.6827675 0 0 0 0,-0.9658568 A 0.6827675,0.6827675 0 0 0 4.72265,3.5600959 Z M 9.496288,2.4152099 A 0.6827675,0.6827675 0 0 0 8.660221,2.8978438 L 6.021077,12.748724 A 0.6827675,0.6827675 0 0 0 6.503712,13.58479 0.6827675,0.6827675 0 0 0 7.33978,13.102153 L 9.979505,3.2512758 A 0.6827675,0.6827675 0 0 0 9.496288,2.4152099 Z" />
</svg></g>
  </defs>
  <rect
      width="256"
      height="256"
      fill="url(#Gradient)"
      ry="128"
      x="0"
      y="0" />
  <use xlink:href="#child-svg" filter="url(#alpha-to-white)"
       transform="matrix(8,0,0,8,64,64)" />
</svg>